<svg width="41" height="36" viewBox="0 0 41 36" fill="none" xmlns="http://www.w3.org/2000/svg">
<path d="M39.8611 20.25H34.1667V27L31.8889 25.5023L29.6111 27V20.25H23.9167C23.2903 20.25 22.7778 20.7563 22.7778 21.375V34.875C22.7778 35.4937 23.2903 36 23.9167 36H39.8611C40.4875 36 41 35.4937 41 34.875V21.375C41 20.7563 40.4875 20.25 39.8611 20.25ZM12.5278 15.75H28.4722C29.0986 15.75 29.6111 15.2437 29.6111 14.625V1.125C29.6111 0.50625 29.0986 0 28.4722 0H22.7778V6.75L20.5 5.25234L18.2222 6.75V0H12.5278C11.9014 0 11.3889 0.50625 11.3889 1.125V14.625C11.3889 15.2437 11.9014 15.75 12.5278 15.75ZM17.0833 20.25H11.3889V27L9.11111 25.5023L6.83333 27V20.25H1.13889C0.5125 20.25 0 20.7563 0 21.375V34.875C0 35.4937 0.5125 36 1.13889 36H17.0833C17.7097 36 18.2222 35.4937 18.2222 34.875V21.375C18.2222 20.7563 17.7097 20.25 17.0833 20.25Z" fill="#F44F41" fill-opacity="0.95"/>
</svg>
