<svg width="12" height="15" viewBox="0 0 12 15" fill="none" xmlns="http://www.w3.org/2000/svg">
<path d="M8.79936 2.80172L8.61482 2.57396V2.86709V4.04996V4.15381H8.71867H9.67701H9.89479L9.7577 3.98459L8.79936 2.80172ZM10.6037 5.54995V5.4461H10.4999H8.71867C7.9476 5.4461 7.32253 4.82103 7.32253 4.04996V1.49999V1.39614H7.21868H2.99997C2.1142 1.39614 1.39614 2.1142 1.39614 2.99997V11.9999C1.39614 12.8857 2.1142 13.6037 2.99997 13.6037H8.99991C9.88569 13.6037 10.6037 12.8857 10.6037 11.9999V5.54995ZM6.64609 9.37491V9.5826L6.81224 9.45799L7.11224 9.23299C7.39773 9.01887 7.80273 9.07673 8.01685 9.36222C8.23096 9.6477 8.1731 10.0527 7.88762 10.2668L6.39369 11.3873L6.3928 11.3879C6.28392 11.4715 6.14787 11.521 5.99994 11.521C5.85201 11.521 5.71596 11.4715 5.60709 11.3879L5.60619 11.3873L4.11227 10.2668C3.82678 10.0527 3.76892 9.6477 3.98304 9.36222C4.19715 9.07673 4.60216 9.01887 4.88765 9.23299L5.18764 9.45799L5.3538 9.5826V9.37491V6.45849C5.3538 6.10163 5.64309 5.81234 5.99994 5.81234C6.3568 5.81234 6.64609 6.10163 6.64609 6.45849V9.37491ZM0.103845 2.99997C0.103845 1.40049 1.40049 0.103845 2.99997 0.103845H7.61106C8.03216 0.103845 8.43076 0.293911 8.69585 0.621103L11.5847 4.18676C11.7861 4.43539 11.896 4.74566 11.896 5.06564V11.9999C11.896 13.5994 10.5994 14.896 8.99991 14.896H2.99997C1.40049 14.896 0.103845 13.5994 0.103845 11.9999V2.99997Z" fill="#E61A27" stroke="white" stroke-width="0.2"/>
</svg>
