<svg width="127" height="239" viewBox="0 0 127 239" fill="none" xmlns="http://www.w3.org/2000/svg">
<path d="M106.74 239H19.4194C8.8721 238.959 -0.0312894 230.642 8.26554e-05 220.886L0.928702 17.5915C0.938567 15.2713 1.44294 12.9756 2.413 10.8356C3.38305 8.69557 4.79979 6.75324 6.58223 5.11958C8.36467 3.48592 10.4779 2.19294 12.8011 1.31453C15.1244 0.436125 17.6121 -0.0104985 20.1221 0.00018731L107.845 0.377187C110.353 0.387066 112.835 0.853712 115.149 1.75047C117.462 2.64722 119.562 3.95652 121.328 5.60357C123.094 7.25062 124.492 9.20316 125.442 11.3496C126.391 13.4961 126.874 15.7945 126.862 18.1135L125.934 221.408C125.924 223.729 125.42 226.024 124.449 228.164C123.479 230.304 122.063 232.247 120.28 233.88C118.498 235.514 116.385 236.807 114.061 237.685C111.738 238.564 109.25 239.01 106.74 239Z" fill="#3E3E3E"/>
</svg>
