<svg width="17" height="17" viewBox="0 0 17 17" fill="none" xmlns="http://www.w3.org/2000/svg">
<path d="M8.26988 0C3.70034 0 0 3.808 0 8.5C0 13.192 3.70034 17 8.26988 17C12.8477 17 16.5563 13.192 16.5563 8.5C16.5563 3.808 12.8477 0 8.26988 0ZM8.27816 15.3C4.61921 15.3 1.65563 12.257 1.65563 8.5C1.65563 4.743 4.61921 1.7 8.27816 1.7C11.9371 1.7 14.9007 4.743 14.9007 8.5C14.9007 12.257 11.9371 15.3 8.27816 15.3Z" fill="#EB3223"/>
<path d="M8.69255 4.25009H7.45082V9.3501L11.7969 12.0276L12.4177 10.9821L8.69255 8.71259V4.25009Z" fill="#EB3223"/>
</svg>
