<svg width="17" height="10" viewBox="0 0 17 10" fill="none" xmlns="http://www.w3.org/2000/svg">
<path d="M16.15 1.76471H0.85C0.624566 1.76471 0.408365 1.67174 0.248959 1.50627C0.0895533 1.3408 0 1.11637 0 0.882353C0 0.648338 0.0895533 0.423908 0.248959 0.258435C0.408365 0.0929618 0.624566 0 0.85 0H16.15C16.3754 0 16.5916 0.0929618 16.751 0.258435C16.9104 0.423908 17 0.648338 17 0.882353C17 1.11637 16.9104 1.3408 16.751 1.50627C16.5916 1.67174 16.3754 1.76471 16.15 1.76471ZM13.3167 5.88235H3.68333C3.4579 5.88235 3.2417 5.78939 3.08229 5.62392C2.92289 5.45844 2.83333 5.23401 2.83333 5C2.83333 4.76599 2.92289 4.54156 3.08229 4.37608C3.2417 4.21061 3.4579 4.11765 3.68333 4.11765H13.3167C13.5421 4.11765 13.7583 4.21061 13.9177 4.37608C14.0771 4.54156 14.1667 4.76599 14.1667 5C14.1667 5.23401 14.0771 5.45844 13.9177 5.62392C13.7583 5.78939 13.5421 5.88235 13.3167 5.88235ZM9.91667 10H7.08333C6.8579 10 6.6417 9.90704 6.48229 9.74156C6.32289 9.57609 6.23333 9.35166 6.23333 9.11765C6.23333 8.88363 6.32289 8.6592 6.48229 8.49373C6.6417 8.32826 6.8579 8.23529 7.08333 8.23529H9.91667C10.1421 8.23529 10.3583 8.32826 10.5177 8.49373C10.6771 8.6592 10.7667 8.88363 10.7667 9.11765C10.7667 9.35166 10.6771 9.57609 10.5177 9.74156C10.3583 9.90704 10.1421 10 9.91667 10Z" fill="white"/>
</svg>
