<svg width="14" height="14" viewBox="0 0 14 14" fill="none" xmlns="http://www.w3.org/2000/svg">
<g clip-path="url(#clip0_1_193)">
<path d="M10.519 10.7721L13.828 7.10881C14.2185 6.67638 13.9011 6 13.3084 6L6.69053 6C6.5579 5.99989 6.42804 6.03682 6.31651 6.10636C6.20498 6.17591 6.11651 6.27512 6.06169 6.39212C6.00687 6.50912 5.98802 6.63895 6.00741 6.76606C6.0268 6.89317 6.0836 7.01217 6.17101 7.10881L9.47996 10.7714C9.54472 10.8432 9.62458 10.9008 9.71419 10.9402C9.80379 10.9796 9.90107 11 9.99949 11C10.0979 11 10.1952 10.9796 10.2848 10.9402C10.3744 10.9008 10.4543 10.8432 10.519 10.7714L10.519 10.7721Z" fill="#EB3223"/>
</g>
<defs>
<clipPath id="clip0_1_193">
<rect width="14" height="14" fill="white"/>
</clipPath>
</defs>
</svg>
