<svg width="17" height="18" viewBox="0 0 17 18" fill="none" xmlns="http://www.w3.org/2000/svg">
<path d="M13.4067 6.05608C13.4067 4.7176 12.875 3.43394 11.9285 2.4875C10.9821 1.54105 9.69841 1.00935 8.35994 1.00935C7.02146 1.00935 5.7378 1.54105 4.79136 2.4875C3.84491 3.43394 3.31321 4.7176 3.31321 6.05608C3.31321 8.6553 2.65753 10.4349 1.92507 11.612C1.30724 12.6049 0.998319 13.1014 1.00965 13.2399C1.02219 13.3932 1.05468 13.4517 1.17825 13.5434C1.28985 13.6262 1.79295 13.6262 2.79916 13.6262H13.9207C14.9269 13.6262 15.43 13.6262 15.5416 13.5434C15.6652 13.4517 15.6977 13.3932 15.7102 13.2399C15.7216 13.1014 15.4126 12.6049 14.7948 11.612C14.0623 10.4349 13.4067 8.6553 13.4067 6.05608Z" fill="#F44F41"/>
<path d="M10.0422 16.9907H6.67769M13.4067 6.05608C13.4067 4.7176 12.875 3.43394 11.9285 2.4875C10.9821 1.54105 9.69841 1.00935 8.35994 1.00935C7.02146 1.00935 5.7378 1.54105 4.79136 2.4875C3.84491 3.43394 3.31321 4.7176 3.31321 6.05608C3.31321 8.6553 2.65753 10.4349 1.92507 11.612C1.30724 12.6049 0.998319 13.1014 1.00965 13.2399C1.02219 13.3932 1.05468 13.4517 1.17825 13.5434C1.28985 13.6262 1.79295 13.6262 2.79916 13.6262H13.9207C14.9269 13.6262 15.43 13.6262 15.5416 13.5434C15.6652 13.4517 15.6977 13.3932 15.7102 13.2399C15.7216 13.1014 15.4126 12.6049 14.7948 11.612C14.0623 10.4349 13.4067 8.6553 13.4067 6.05608Z" stroke="#F44F41" stroke-width="2" stroke-linecap="round" stroke-linejoin="round"/>
</svg>
