<svg width="14" height="14" viewBox="0 0 14 14" fill="none" xmlns="http://www.w3.org/2000/svg">
<path d="M9.48099 6.2279L6.17204 9.89119C5.78153 10.3236 6.0989 11 6.69156 11H13.3095C13.4421 11.0001 13.572 10.9632 13.6835 10.8936C13.795 10.8241 13.8835 10.7249 13.9383 10.6079C13.9931 10.4909 14.012 10.361 13.9926 10.2339C13.9732 10.1068 13.9164 9.98783 13.829 9.89119L10.52 6.22857C10.4553 6.15678 10.3754 6.09924 10.2858 6.05982C10.1962 6.0204 10.0989 6 10.0005 6C9.9021 6 9.80482 6.0204 9.71522 6.05982C9.62561 6.09924 9.54575 6.15678 9.48099 6.22857V6.2279Z" fill="#27AF8D"/>
</svg>
